<?xml version="1.0" encoding="utf-8"?>
<!-- Generator: Adobe Illustrator 27.3.1, SVG Export Plug-In . SVG Version: 6.00 Build 0)  -->
<svg version="1.1" id="Calque_1" xmlns="http://www.w3.org/2000/svg" xmlns:xlink="http://www.w3.org/1999/xlink" x="0px" y="0px"
	 viewBox="0 0 732 561" style="enable-background:new 0 0 732 561;" xml:space="preserve">
<style type="text/css">
	.st0{display:none;}
	.st1{display:inline;opacity:0.976;fill-rule:evenodd;clip-rule:evenodd;fill:#0B0C15;enable-background:new    ;}
	.st2{display:inline;opacity:0.888;fill-rule:evenodd;clip-rule:evenodd;fill:#000002;enable-background:new    ;}
	.st3{opacity:0.961;fill-rule:evenodd;clip-rule:evenodd;fill:#9E1C2E;enable-background:new    ;}
	.st4{display:inline;opacity:0.955;fill-rule:evenodd;clip-rule:evenodd;fill:#1D0C0C;enable-background:new    ;}
	.st5{fill-rule:evenodd;clip-rule:evenodd;fill:none;stroke:#000000;stroke-miterlimit:10;}
	.st6{display:none;fill-rule:evenodd;clip-rule:evenodd;fill:none;stroke:#000000;stroke-width:10;stroke-miterlimit:10;}
	.st7{fill-rule:evenodd;clip-rule:evenodd;fill:none;stroke:#000000;stroke-width:16;stroke-miterlimit:10;}
	.st8{fill-rule:evenodd;clip-rule:evenodd;fill:none;stroke:#000000;stroke-width:10;stroke-miterlimit:10;}
	.st9{fill-rule:evenodd;clip-rule:evenodd;fill:#140000;stroke:#1D1D1B;stroke-width:7;stroke-miterlimit:10;}
	.st10{fill-rule:evenodd;clip-rule:evenodd;}
</style>
<g class="st0">
	<path class="st1" d="M299.5,20.5c37.6-2.7,69.4,9.3,95.5,36c24.4,29.2,29.4,61.6,15,97c-15.8,30.8-40.6,49.9-74.5,57.5
		c-43,7.6-79.1-4.6-108.5-36.5c-22.8-29.9-26.8-62.2-12-97C233.8,44.7,262,25.7,299.5,20.5z"/>
</g>
<g class="st0">
	<path class="st2" d="M177.5,189.5c2.5-0.2,4.8,0.3,7,1.5c24.9,21.3,52.6,38.3,83,51c25.8,9.2,51.8,9.9,78,2c14-4.5,27.7-9.8,41-16
		c18.9-9.4,37.8-18.9,56.5-28.5c37.1,9,73.3,20.9,108.5,35.5c8,3.4,15.7,7.4,23,12c3.6,2.5,5.9,5.9,7,10c-1.2,4.5-4.2,6.8-9,7
		c-20.3,1.4-40.7,1.2-61-0.5c-19.8-1-38.1,3.5-55,13.5c-13.7,8.6-20.9,21.1-21.5,37.5c-1.8,61-3.3,122-4.5,183
		c-88.5,2.1-177,3.8-265.5,5c-13.2,0.1-26.4-0.4-39.5-1.5c-16-2.2-28.8-9.7-38.5-22.5c-2.6-5-4.3-10.4-5-16c1.4-73,3.7-146,7-219
		c5.3-12.3,13.8-21.8,25.5-28.5C134.5,203.7,155.5,195.2,177.5,189.5z"/>
</g>
<g>
	<path class="st3" d="M469.6,282.3c-29.5-3-54.2,6-74.2,27.1c-0.5,0.6-1,1.2-1.4,1.9c-5.8,9.8-8.6,20.5-8.4,32
		c-1.8,54.2-2.7,108.4-2.5,162.6c0,5.8-4.6,10.5-10.4,10.6c-93.7,1.8-187.3,3.2-281,4.3c-0.4,0-0.8,0-1.2,0
		c-11.2-1.1-21.5-4.5-31.1-10.1c-0.9-0.6-1.7-1.3-2.5-2.1c-3.6-4.1-8.1-10-11.7-17.8c-4.7-10.1-6.2-19.3-6.6-25.4c0-0.4,0-0.7,0-1.1
		c-1.8-35.4,0.3-63.8,0-83c-0.7-45-7.2-65.7,5-97.5c4.1-10.6,8.8-18.8,12.2-24.3c0.5-0.8,1.1-1.5,1.8-2.2
		c4.2-3.9,10.1-8.8,17.6-13.7c10-6.6,18.3-10.2,26.9-13.8c7.3-3.1,17-6.8,28.8-10.2c0.8-0.2,1.6-0.4,2.4-0.4c0.2,0,0.3,0,0.5,0
		c2.4,0,4.7,1,6.6,2.5c26.1,20,21.6,16.9,47.4,33.5c0.2,0.1,19.8,9,20,9.1c27.8,10.6,41.5,13.8,75.6,12.5c13.5-0.5,43-12.3,55.6-17
		c27-10,38.8-18.8,58-28.7c2.3-1.2,4.9-1.5,7.4-0.9c39.8,10,78.4,23.5,115.6,40.5c4.5,2,8.3,4.8,11.5,8.5c0.5,1.2,0,2.1-1.5,2.5
		c-1.7,0.3-3.5,0.6-5.2,0.9"/>
</g>
<g class="st0">
	<path class="st4" d="M582.5,286.5c-5.7,0-11.3,0-17,0c0,48,0,96,0,144c46,0,92,0,138,0c-0.3-7.2,0-14.2,1-21
		c1,33.3,1.5,66.7,1.5,100c-3.3,14.7-12.2,24.2-26.5,28.5c-68.3,0.7-136.7,0.7-205,0c-13.9-4.3-22.8-13.4-26.5-27.5
		c-0.7-66.7-0.7-133.3,0-200c3.7-16.4,13.9-25.9,30.5-28.5c34.7-0.1,69.3,0.4,104,1.5C582.5,284.5,582.5,285.5,582.5,286.5z"/>
</g>
<path class="st5" d="M438,286.5"/>
<polyline class="st6" points="82,462.5 86.4,239 106,218.6 127,202 143,195.4 162,189.5 171,189.5 177.5,189.5 184.5,191 196.6,208 
	206.2,213.2 231.8,231 258.1,237.9 291,248 312.1,245 331.8,245 371.1,234.7 386.5,228 423.2,213.2 443,199.5 508.4,218.6 
	574.5,247 573.5,258 572.5,264 489,260 459.3,269.2 438,286.5 435,314.5 427.8,361.9 430.5,497.5 125.5,501 97.1,481.4 77,465 "/>
<path class="st7" d="M689,480.8c0,16.1-13.7,29.2-30.7,29.2H551.7H449.7c-16.9,0-30.7-13.1-30.7-29.2V343.2
	c0-16.1,13.7-29.2,30.7-29.2h208.6c16.9,0,30.7,13.1,30.7,29.2V480.8z"/>
<path class="st8" d="M569.2,510"/>
<ellipse class="st9" cx="266.5" cy="123" rx="121.5" ry="113"/>
<polyline class="st7" points="552.7,510 552.7,547.8 482.1,547.8 615.1,547.8 "/>
<circle class="st10" cx="474.1" cy="412" r="24.8"/>
<circle class="st10" cx="548.6" cy="412" r="24.8"/>
<circle class="st10" cx="627.8" cy="412" r="24.8"/>
</svg>
